<svg viewBox="0 0 465 141.08" xmlns="http://www.w3.org/2000/svg"><g fill="#231815"><g fill-rule="evenodd"><path d="m25.21 45.6-2 66.44v1.1l-1.07-.24-3.55-.79-.73-.17v-.74l2-65.6h-11.42v-5.35h11.65l.07-6v-1.09l1.09.25 3.55.79.72.16v.73l-.06 5.16h57.19v65.84h9.76v-13.09h4.59v17.64h-19.71v-65.04zm233.17-3.33h54.18v-4.76h5.35v4.76h10.28v5.35h-10.28v5.2h-5.35v-5.2h-56.34v5.63h-5.35v-5.63h-11.32v-5.35h11.32v-4.76h5.35v4.76zm-87.59 63.87h36v-31h-36zm-41.48-31v31h36.13v-31zm36.13-18.47h-36.13v13.15h36.13v-13.11zm41.38 13.11v-13.07h-36v13.11zm5.76-17.56v58.46h-88.58v-59.33h88.62v.91zm37.28 13.56-8.34-1.08-.57-.07-.18-.54-1.17-3.54-.38-1.12 1.19-.07 13.84-.8 1-.06v52.2h-5.35v-44.88zm74.65 1.9-17.86.77v37.24h21.48v5h-26.83v-41.69l-7.4.62-.88.07-.1-.88-.4-3.55-.11-.93.94-.07 7.95-.64v-8.2h5.35v7.32l17.4-.77h.86l.09.85.38 3.94.1 1h-1zm30.65 42.09v-72.24h88.62v73.19h-88.62v-.91zm46.43-42.87v39.24h36.41v-39.24zm-41.07 0v39.24h35.32v-39.24zm41.07-24v18.65h36.41v-18.67zm-41.07 0v18.65h35.32v-18.67z" transform="translate(-8.44 -12.65)"/><path d="m21.25 133.94h2.23v12.22a8.22 8.22 0 0 1 -1.78 5.54 6.36 6.36 0 0 1 -4.93 2 14.94 14.94 0 0 1 -3.07-.3 23.52 23.52 0 0 1 -3.21-.9l-.19-.07v-.2l.41-1.75.06-.24.23.07a27.6 27.6 0 0 0 3.07.8 14.38 14.38 0 0 0 2.65.25 3.89 3.89 0 0 0 3.17-1.36 6 6 0 0 0 1.11-3.82v-12.24zm26.64 0h2.21v19.37h-2.43v-19.37zm41 0h2.2v11.55a8.17 8.17 0 0 1 -2.28 6 9.27 9.27 0 0 1 -12.11 0 8.23 8.23 0 0 1 -2.27-6v-11.55h2.43v11.55a6 6 0 0 0 1.6 4.33 5.88 5.88 0 0 0 4.29 1.61 5.53 5.53 0 0 0 5.91-5.94v-11.55zm45.47 19.15-.83-13.71-6.53 13.8-.07.13h-2.06l-.06-.13-6.52-13.8-.81 13.71v.22h-2.41v-.24l1.11-18.91v-.22h2.25l.07.14 7.38 16.09 7.39-16.09.06-.14h2.25v.22l1.11 18.91v.24h-2.4v-.22zm40.89-19.15h2.2v11.55a8.17 8.17 0 0 1 -2.28 6 9.27 9.27 0 0 1 -12.11 0 8.23 8.23 0 0 1 -2.27-6v-11.55h2.43v11.55a6 6 0 0 0 1.6 4.33 5.88 5.88 0 0 0 4.29 1.61 5.53 5.53 0 0 0 5.91-5.94v-11.55zm42.26.23v19.14h-2.43v-8.46h-11.08v8.46h-2.43v-19.37h2.43v8.65h11v-8.65h2.43v.23zm38.76-.23h2.2v11.55a8.17 8.17 0 0 1 -2.28 6 9.27 9.27 0 0 1 -12.11 0 8.23 8.23 0 0 1 -2.27-6v-11.55h2.43v11.55a6 6 0 0 0 1.6 4.33 5.88 5.88 0 0 0 4.29 1.61 5.55 5.55 0 0 0 5.92-5.94v-11.55zm39 14.75h-10.27l-2 4.48-.06.14h-2.74l.15-.32 8.59-19.05.06-.14h2.19l.06.14 8.59 19.06.14.32h-2.69l-.06-.14-2-4.48zm-1-2.23-4.13-9.34-4.15 9.34zm41.1-10.25h-7.26v17.1h-2.43v-17.1h-7.48v-2.27h17.39v2.27zm22.08-2.27h2.21v19.37h-2.43v-19.37zm39.94 14.75h-10.33l-2 4.48-.06.14h-2.72l.14-.32 8.6-19.05.06-.14h2.18l.06.14 8.68 19.06.14.32h-2.7l-.06-.14-2-4.48zm-1-2.23-4.13-9.34-4.26 9.34zm42.87-12.52h2.2v19.37h-2.34l-.06-.09-11.78-15.16v15.25h-2.43v-19.37h2.26l.07.09 11.82 15.22v-15.31z" transform="translate(-8.44 -12.65)"/><path d="m115.52 32.4v-3.53-.91h.91 40.84l-2.93-4.1-.53-.74.74-.53 2.78-1.96.71-.51.53.68 5.63 7.16h39.02.91v.91 3.53.91h-.91-86.79-.91z"/></g><text font-family="ArialMT, Arial" font-size="27.86" transform="translate(444.44 23.91)">®</text></g></svg>